<mxfile host="app.diagrams.net" agent="Mozilla/5.0 (Macintosh; Intel Mac OS X 10_15_7) AppleWebKit/605.1.15 (KHTML, like Gecko) Version/18.3 Safari/605.1.15" version="26.0.16">
  <diagram name="第 1 页" id="3mpfL_CKx76lKgyrDFgp">
    <mxGraphModel dx="1242" dy="760" grid="1" gridSize="10" guides="1" tooltips="1" connect="1" arrows="1" fold="1" page="1" pageScale="1" pageWidth="827" pageHeight="1169" math="0" shadow="0">
      <root>
        <mxCell id="0" />
        <mxCell id="1" parent="0" />
        <mxCell id="rILtGBhvGcy_28K1j3xL-18" style="edgeStyle=orthogonalEdgeStyle;rounded=0;orthogonalLoop=1;jettySize=auto;html=1;entryX=0.5;entryY=0;entryDx=0;entryDy=0;sketch=1;curveFitting=1;jiggle=2;" edge="1" parent="1" source="rILtGBhvGcy_28K1j3xL-1" target="rILtGBhvGcy_28K1j3xL-2">
          <mxGeometry relative="1" as="geometry" />
        </mxCell>
        <mxCell id="rILtGBhvGcy_28K1j3xL-30" value="自然语言查询" style="edgeLabel;html=1;align=center;verticalAlign=middle;resizable=0;points=[];fontSize=14;" vertex="1" connectable="0" parent="rILtGBhvGcy_28K1j3xL-18">
          <mxGeometry x="-0.2531" relative="1" as="geometry">
            <mxPoint as="offset" />
          </mxGeometry>
        </mxCell>
        <mxCell id="rILtGBhvGcy_28K1j3xL-1" value="" style="shape=umlActor;verticalLabelPosition=bottom;verticalAlign=top;html=1;outlineConnect=0;sketch=1;curveFitting=1;jiggle=2;fillColor=#dae8fc;strokeColor=#6c8ebf;" vertex="1" parent="1">
          <mxGeometry x="89" y="170" width="30" height="60" as="geometry" />
        </mxCell>
        <mxCell id="rILtGBhvGcy_28K1j3xL-19" value="" style="edgeStyle=orthogonalEdgeStyle;rounded=0;orthogonalLoop=1;jettySize=auto;html=1;sketch=1;curveFitting=1;jiggle=2;" edge="1" parent="1" source="rILtGBhvGcy_28K1j3xL-2" target="rILtGBhvGcy_28K1j3xL-3">
          <mxGeometry relative="1" as="geometry">
            <Array as="points">
              <mxPoint x="724" y="400" />
              <mxPoint x="724" y="400" />
            </Array>
          </mxGeometry>
        </mxCell>
        <mxCell id="rILtGBhvGcy_28K1j3xL-2" value="表结构索引检索" style="rounded=0;whiteSpace=wrap;html=1;sketch=1;curveFitting=1;jiggle=2;fillColor=#d5e8d4;strokeColor=#82b366;" vertex="1" parent="1">
          <mxGeometry x="664" y="310" width="120" height="60" as="geometry" />
        </mxCell>
        <mxCell id="rILtGBhvGcy_28K1j3xL-20" value="" style="edgeStyle=orthogonalEdgeStyle;rounded=0;orthogonalLoop=1;jettySize=auto;html=1;sketch=1;curveFitting=1;jiggle=2;" edge="1" parent="1" source="rILtGBhvGcy_28K1j3xL-3" target="rILtGBhvGcy_28K1j3xL-4">
          <mxGeometry relative="1" as="geometry" />
        </mxCell>
        <mxCell id="rILtGBhvGcy_28K1j3xL-3" value="查询到表结构信息" style="shape=document;whiteSpace=wrap;html=1;boundedLbl=1;sketch=1;curveFitting=1;jiggle=2;fillColor=#fff2cc;strokeColor=#d6b656;" vertex="1" parent="1">
          <mxGeometry x="664" y="430" width="120" height="80" as="geometry" />
        </mxCell>
        <mxCell id="rILtGBhvGcy_28K1j3xL-21" value="" style="edgeStyle=orthogonalEdgeStyle;rounded=0;orthogonalLoop=1;jettySize=auto;html=1;sketch=1;curveFitting=1;jiggle=2;" edge="1" parent="1" source="rILtGBhvGcy_28K1j3xL-4" target="rILtGBhvGcy_28K1j3xL-5">
          <mxGeometry relative="1" as="geometry" />
        </mxCell>
        <mxCell id="rILtGBhvGcy_28K1j3xL-4" value="SQL 命令生成" style="rounded=0;whiteSpace=wrap;html=1;sketch=1;curveFitting=1;jiggle=2;fillColor=#d5e8d4;strokeColor=#82b366;" vertex="1" parent="1">
          <mxGeometry x="664" y="570" width="120" height="60" as="geometry" />
        </mxCell>
        <mxCell id="rILtGBhvGcy_28K1j3xL-22" style="edgeStyle=orthogonalEdgeStyle;rounded=0;orthogonalLoop=1;jettySize=auto;html=1;sketch=1;curveFitting=1;jiggle=2;" edge="1" parent="1" source="rILtGBhvGcy_28K1j3xL-5" target="rILtGBhvGcy_28K1j3xL-6">
          <mxGeometry relative="1" as="geometry" />
        </mxCell>
        <mxCell id="rILtGBhvGcy_28K1j3xL-5" value="正确的 SQL 脚本" style="shape=document;whiteSpace=wrap;html=1;boundedLbl=1;sketch=1;curveFitting=1;jiggle=2;fillColor=#fff2cc;strokeColor=#d6b656;" vertex="1" parent="1">
          <mxGeometry x="664" y="690" width="120" height="80" as="geometry" />
        </mxCell>
        <mxCell id="rILtGBhvGcy_28K1j3xL-6" value="SQL 命令执行" style="rounded=0;whiteSpace=wrap;html=1;sketch=1;curveFitting=1;jiggle=2;fillColor=#d5e8d4;strokeColor=#82b366;" vertex="1" parent="1">
          <mxGeometry x="347" y="700" width="120" height="60" as="geometry" />
        </mxCell>
        <mxCell id="rILtGBhvGcy_28K1j3xL-24" style="edgeStyle=orthogonalEdgeStyle;rounded=0;orthogonalLoop=1;jettySize=auto;html=1;exitX=0.5;exitY=0;exitDx=0;exitDy=0;sketch=1;curveFitting=1;jiggle=2;" edge="1" parent="1" source="rILtGBhvGcy_28K1j3xL-7" target="rILtGBhvGcy_28K1j3xL-8">
          <mxGeometry relative="1" as="geometry" />
        </mxCell>
        <mxCell id="rILtGBhvGcy_28K1j3xL-7" value="相关表数据" style="shape=document;whiteSpace=wrap;html=1;boundedLbl=1;sketch=1;curveFitting=1;jiggle=2;fillColor=#fff2cc;strokeColor=#d6b656;" vertex="1" parent="1">
          <mxGeometry x="44" y="700" width="120" height="80" as="geometry" />
        </mxCell>
        <mxCell id="rILtGBhvGcy_28K1j3xL-25" value="" style="edgeStyle=orthogonalEdgeStyle;rounded=0;orthogonalLoop=1;jettySize=auto;html=1;sketch=1;curveFitting=1;jiggle=2;" edge="1" parent="1" source="rILtGBhvGcy_28K1j3xL-8" target="rILtGBhvGcy_28K1j3xL-9">
          <mxGeometry relative="1" as="geometry" />
        </mxCell>
        <mxCell id="rILtGBhvGcy_28K1j3xL-8" value="合成响应结果" style="rounded=0;whiteSpace=wrap;html=1;sketch=1;curveFitting=1;jiggle=2;fillColor=#d5e8d4;strokeColor=#82b366;" vertex="1" parent="1">
          <mxGeometry x="44" y="570" width="120" height="60" as="geometry" />
        </mxCell>
        <mxCell id="rILtGBhvGcy_28K1j3xL-26" value="" style="edgeStyle=orthogonalEdgeStyle;rounded=0;orthogonalLoop=1;jettySize=auto;html=1;sketch=1;curveFitting=1;jiggle=2;" edge="1" parent="1" source="rILtGBhvGcy_28K1j3xL-9" target="rILtGBhvGcy_28K1j3xL-11">
          <mxGeometry relative="1" as="geometry" />
        </mxCell>
        <mxCell id="rILtGBhvGcy_28K1j3xL-9" value="最终答案" style="shape=document;whiteSpace=wrap;html=1;boundedLbl=1;sketch=1;curveFitting=1;jiggle=2;fillColor=#fff2cc;strokeColor=#d6b656;" vertex="1" parent="1">
          <mxGeometry x="44" y="430" width="120" height="80" as="geometry" />
        </mxCell>
        <mxCell id="rILtGBhvGcy_28K1j3xL-29" value="" style="edgeStyle=orthogonalEdgeStyle;rounded=0;orthogonalLoop=1;jettySize=auto;html=1;sketch=1;curveFitting=1;jiggle=2;" edge="1" parent="1" source="rILtGBhvGcy_28K1j3xL-11" target="rILtGBhvGcy_28K1j3xL-1">
          <mxGeometry relative="1" as="geometry" />
        </mxCell>
        <mxCell id="rILtGBhvGcy_28K1j3xL-31" value="自然语言查询结果" style="edgeLabel;html=1;align=center;verticalAlign=middle;resizable=0;points=[];fontSize=14;" vertex="1" connectable="0" parent="rILtGBhvGcy_28K1j3xL-29">
          <mxGeometry x="-0.025" y="-1" relative="1" as="geometry">
            <mxPoint as="offset" />
          </mxGeometry>
        </mxCell>
        <mxCell id="rILtGBhvGcy_28K1j3xL-11" value="返回给用户" style="rounded=0;whiteSpace=wrap;html=1;sketch=1;curveFitting=1;jiggle=2;fillColor=#d5e8d4;strokeColor=#82b366;" vertex="1" parent="1">
          <mxGeometry x="44" y="310" width="120" height="60" as="geometry" />
        </mxCell>
        <mxCell id="rILtGBhvGcy_28K1j3xL-12" value="潜入模型" style="shape=process;whiteSpace=wrap;html=1;backgroundOutline=1;fillColor=#e1d5e7;strokeColor=#9673a6;" vertex="1" parent="1">
          <mxGeometry x="274" y="370" width="120" height="60" as="geometry" />
        </mxCell>
        <mxCell id="rILtGBhvGcy_28K1j3xL-13" value="大语言模型" style="shape=process;whiteSpace=wrap;html=1;backgroundOutline=1;fillColor=#e1d5e7;strokeColor=#9673a6;" vertex="1" parent="1">
          <mxGeometry x="274" y="470" width="120" height="60" as="geometry" />
        </mxCell>
        <mxCell id="rILtGBhvGcy_28K1j3xL-14" value="数据库访问对象" style="shape=process;whiteSpace=wrap;html=1;backgroundOutline=1;fillColor=#e1d5e7;strokeColor=#9673a6;" vertex="1" parent="1">
          <mxGeometry x="444" y="370" width="120" height="60" as="geometry" />
        </mxCell>
        <mxCell id="rILtGBhvGcy_28K1j3xL-15" value="SQL 数据检索器" style="shape=process;whiteSpace=wrap;html=1;backgroundOutline=1;fillColor=#e1d5e7;strokeColor=#9673a6;" vertex="1" parent="1">
          <mxGeometry x="444" y="470" width="120" height="60" as="geometry" />
        </mxCell>
        <mxCell id="rILtGBhvGcy_28K1j3xL-16" value="表结构检索器" style="shape=process;whiteSpace=wrap;html=1;backgroundOutline=1;fillColor=#e1d5e7;strokeColor=#9673a6;" vertex="1" parent="1">
          <mxGeometry x="444" y="570" width="120" height="60" as="geometry" />
        </mxCell>
        <mxCell id="rILtGBhvGcy_28K1j3xL-23" style="edgeStyle=orthogonalEdgeStyle;rounded=0;orthogonalLoop=1;jettySize=auto;html=1;entryX=1.008;entryY=0.375;entryDx=0;entryDy=0;entryPerimeter=0;sketch=1;curveFitting=1;jiggle=2;" edge="1" parent="1" source="rILtGBhvGcy_28K1j3xL-6" target="rILtGBhvGcy_28K1j3xL-7">
          <mxGeometry relative="1" as="geometry" />
        </mxCell>
        <mxCell id="rILtGBhvGcy_28K1j3xL-32" value="&lt;h1 style=&quot;margin-top: 0px;&quot;&gt;Text-2-SQL&lt;/h1&gt;&lt;p&gt;&lt;font style=&quot;font-size: 14px;&quot;&gt;利用自然语言查询数据库，并返回自然语言结果&lt;/font&gt;&lt;/p&gt;" style="text;html=1;whiteSpace=wrap;overflow=hidden;rounded=0;" vertex="1" parent="1">
          <mxGeometry x="260" y="60" width="316" height="80" as="geometry" />
        </mxCell>
      </root>
    </mxGraphModel>
  </diagram>
</mxfile>
